<svg id="Capa_1" data-name="Capa 1" xmlns="http://www.w3.org/2000/svg" viewBox="0 0 384 448"><title>flower</title><path d="M256,469.33c106,0,192-86,192-192C342,277.33,256,363.31,256,469.33ZM119.57,218.67a53.31,53.31,0,0,0,83.52,43.94l-.42,4.06a53.33,53.33,0,1,0,106.66,0l-.42-4.06A52.67,52.67,0,0,0,339.09,272a53.21,53.21,0,0,0,22.83-101.33,53.24,53.24,0,1,0-53-91.95l.42-4a53.33,53.33,0,1,0-106.66,0l.42,4a52.74,52.74,0,0,0-30.18-9.39,53.21,53.21,0,0,0-22.83,101.34,53.07,53.07,0,0,0-30.51,48ZM256,117.33a53.34,53.34,0,1,1-53.33,53.34A53.36,53.36,0,0,1,256,117.33Zm-192,160c0,106,86,192,192,192C256,363.31,170,277.33,64,277.33Z" transform="translate(-64 -21.33)"/></svg>