<svg width="48" height="48" xmlns="http://www.w3.org/2000/svg">
 <defs>
  <style>.cls-1{fill-rule:evenodd;}</style>
 </defs>
 <title>menu_crew</title>
 <g class="currentLayer">
  <title>Layer 1</title>
  <g stroke="null" id="svg_3">
   <path stroke="null" fill="#221f1f" id="svg_1" d="m24.371238,43.108542a29.415573,29.415573 0 0 1 -7.75407,-0.893901a17.649344,17.649344 0 0 1 -5.5505,-2.432242a9.354776,9.354776 0 0 1 -2.931163,-3.055893a6.527555,6.527555 0 0 1 -0.873112,-3.284566c0,-1.247303 0,-2.515395 0,-3.762699a0.207884,0.207884 0 0 0 -0.187096,-0.249461a15.674447,15.674447 0 0 1 -3.263777,-1.28888a7.941165,7.941165 0 0 1 -2.556972,-2.078839a5.633654,5.633654 0 0 1 -1.122573,-2.660914a7.338302,7.338302 0 0 1 0.270249,-2.931163a14.551873,14.551873 0 0 1 2.182781,-4.323985a27.482252,27.482252 0 0 1 7.587763,-7.026476a28.022751,28.022751 0 0 1 6.984899,-3.222201a23.428516,23.428516 0 0 1 4.448716,-0.893901a21.619926,21.619926 0 0 1 4.490292,0a26.297314,26.297314 0 0 1 10.394195,3.388508a28.480095,28.480095 0 0 1 6.444401,4.885272a20.476565,20.476565 0 0 1 3.74191,5.010002a9.853697,9.853697 0 0 1 1.184938,3.637968a5.5505,5.5505 0 0 1 -1.205727,4.26162a8.647971,8.647971 0 0 1 -3.076682,2.307511a15.11316,15.11316 0 0 1 -2.660914,0.977054a0.207884,0.207884 0 0 0 -0.187096,0.249461c0,1.143361 0,2.307511 0,3.471661a7.047264,7.047264 0 0 1 -2.432242,5.529712a13.554031,13.554031 0 0 1 -4.407139,2.702491a23.11669,23.11669 0 0 1 -5.259463,1.392822a25.341048,25.341048 0 0 1 -4.26162,0.291037zm-0.374191,-33.490097l-2.265935,0.187096a16.92175,16.92175 0 0 0 -3.658757,0.810747a22.139636,22.139636 0 0 0 -5.592077,2.723279a22.555404,22.555404 0 0 0 -6.090998,5.820749a8.315356,8.315356 0 0 0 -1.392822,2.702491c-0.207884,0.76917 -0.207884,1.03942 0.51971,1.600706a9.354776,9.354776 0 0 0 1.392822,0.810747a17.753286,17.753286 0 0 0 4.157678,1.247303a2.307511,2.307511 0 0 0 0.914689,0.103942c1.559129,-0.270249 3.139047,-0.561287 4.698176,-0.789959s3.762699,-0.51971 5.654442,-0.748382a13.262993,13.262993 0 0 1 2.224358,0c1.309669,0 2.619337,0.207884 3.908217,0.394979c2.078839,0.311826 4.26162,0.686017 6.382036,1.018631a4.760541,4.760541 0 0 0 1.954109,0.103942a23.158267,23.158267 0 0 0 4.157678,-1.268092a5.321828,5.321828 0 0 0 1.621494,-1.018631a1.018631,1.018631 0 0 0 0.374191,-0.997843c0,-0.145519 0,-0.311826 -0.103942,-0.478133a9.56266,9.56266 0 0 0 -1.372034,-2.619337a22.389097,22.389097 0 0 0 -4.26162,-4.490292a24.15611,24.15611 0 0 0 -5.903903,-3.49245a20.081585,20.081585 0 0 0 -7.317514,-1.621494zm-11.911748,22.971172a7.961954,7.961954 0 0 0 0,1.226515a2.349088,2.349088 0 0 0 0.852324,1.372034a9.853697,9.853697 0 0 0 3.222201,1.870955a21.599138,21.599138 0 0 0 6.402824,1.247303a26.525986,26.525986 0 0 0 5.737596,-0.311826a16.630713,16.630713 0 0 0 5.051579,-1.642283a6.818592,6.818592 0 0 0 2.078839,-1.559129a2.660914,2.660914 0 0 0 0.51971,-2.182781l-1.870955,-0.249461c-2.078839,-0.291037 -4.26162,-0.602863 -6.402824,-0.873112c-0.935478,-0.12473 -1.870955,-0.228672 -2.827221,-0.270249a24.135322,24.135322 0 0 0 -2.45303,0c-1.28888,0.103942 -2.556972,0.228672 -3.825064,0.394979s-3.076682,0.415768 -4.594234,0.64444l-1.891744,0.332614z" class="cls-1"/>
   <path stroke="null" fill="#221f1f" id="svg_2" d="m23.955471,16.811228c0.498921,-0.394979 0.914689,-0.789959 1.372034,-1.143361a5.571289,5.571289 0 0 1 3.679545,-1.16415a5.737596,5.737596 0 0 1 2.931163,0.977054c0.478133,0.332614 0.914689,0.727594 1.392822,1.080996l0.249461,0.187096l0,0l-0.187096,0a19.541087,19.541087 0 0 0 -3.804275,0.540498a5.467347,5.467347 0 0 0 -2.45303,1.018631a1.559129,1.559129 0 0 0 -0.686017,1.184938a2.369877,2.369877 0 0 1 -4.739753,0a1.704648,1.704648 0 0 0 -0.686017,-1.205727a5.488135,5.488135 0 0 0 -2.078839,-0.935478a17.878016,17.878016 0 0 0 -3.783487,-0.415768l-0.582075,0l0.12473,-0.145519a7.10963,7.10963 0 0 1 3.74191,-2.078839a5.155521,5.155521 0 0 1 3.471661,0.51971a7.608551,7.608551 0 0 1 1.912532,1.413611l0.12473,0.166307z" class="cls-1"/>
  </g>
 </g>
 <g>
  <title>Layer 2</title>
  <rect fill="none" y="0" x="0" height="100%" width="100%" id="backgroundrect"/>
 </g>
 <g>
  <title>background</title>
  <rect fill="none" id="canvas_background" height="50" width="50" y="-1" x="-1"/>
 </g>
</svg>