<svg id="Layer_1" data-name="Layer 1" xmlns="http://www.w3.org/2000/svg" viewBox="0 0 22.3 21.36"><defs><style>.cls-1{fill:#231f20;}</style></defs><title>menu_star</title><path class="cls-1" d="M294.21,261.76a1.56,1.56,0,0,1-.69-.17l-5.27-2.77L283,261.59a1.51,1.51,0,0,1-1.58-.12,1.49,1.49,0,0,1-.59-1.47l1-5.86L277.55,250a1.5,1.5,0,0,1,.83-2.56l5.89-.86,2.64-5.33a1.49,1.49,0,0,1,2.68,0l2.64,5.33,5.89.86A1.5,1.5,0,0,1,299,250l-4.26,4.15,1,5.86a1.49,1.49,0,0,1-.59,1.47A1.53,1.53,0,0,1,294.21,261.76Zm-6-6.14a1.57,1.57,0,0,1,.7.17l3.27,1.73-.62-3.65a1.47,1.47,0,0,1,.43-1.33l2.65-2.58-3.66-.53a1.5,1.5,0,0,1-1.13-.82l-1.64-3.32-1.64,3.32a1.5,1.5,0,0,1-1.13.82l-3.66.53,2.65,2.58a1.47,1.47,0,0,1,.43,1.33l-.62,3.65,3.27-1.73A1.57,1.57,0,0,1,288.25,255.62Z" transform="translate(-277.1 -240.4)"/></svg>