<svg id="Layer_1" data-name="Layer 1" xmlns="http://www.w3.org/2000/svg" viewBox="0 0 23 18.4"><defs><style>.cls-1{fill-rule:evenodd;}</style></defs><title>team_black</title><path class="cls-1" d="M257.49,287.42a14.15,14.15,0,0,1-3.73-.43,8.49,8.49,0,0,1-2.67-1.17,4.5,4.5,0,0,1-1.41-1.47,3.14,3.14,0,0,1-.42-1.58c0-.6,0-1.21,0-1.81a.1.1,0,0,0-.09-.12,7.54,7.54,0,0,1-1.57-.62,3.82,3.82,0,0,1-1.23-1,2.71,2.71,0,0,1-.54-1.28,3.53,3.53,0,0,1,.13-1.41,7,7,0,0,1,1.05-2.08,13.22,13.22,0,0,1,3.65-3.38,13.48,13.48,0,0,1,3.36-1.55,11.27,11.27,0,0,1,2.14-.43,10.4,10.4,0,0,1,2.16,0,12.65,12.65,0,0,1,5,1.63,13.7,13.7,0,0,1,3.1,2.35,9.85,9.85,0,0,1,1.8,2.41,4.74,4.74,0,0,1,.57,1.75,2.67,2.67,0,0,1-.58,2.05,4.16,4.16,0,0,1-1.48,1.11,7.27,7.27,0,0,1-1.28.47.1.1,0,0,0-.09.12c0,.55,0,1.11,0,1.67a3.39,3.39,0,0,1-1.17,2.66,6.52,6.52,0,0,1-2.12,1.3,11.12,11.12,0,0,1-2.53.67A12.19,12.19,0,0,1,257.49,287.42Zm-.18-16.11-1.09.09a8.14,8.14,0,0,0-1.76.39,10.65,10.65,0,0,0-2.69,1.31,10.85,10.85,0,0,0-2.93,2.8,4,4,0,0,0-.67,1.3c-.1.37-.1.5.25.77a4.5,4.5,0,0,0,.67.39,8.54,8.54,0,0,0,2,.6,1.11,1.11,0,0,0,.44.05c.75-.13,1.51-.27,2.26-.38s1.81-.25,2.72-.36a6.38,6.38,0,0,1,1.07,0c.63,0,1.26.1,1.88.19,1,.15,2.05.33,3.07.49a2.29,2.29,0,0,0,.94.05,11.14,11.14,0,0,0,2-.61,2.56,2.56,0,0,0,.78-.49.49.49,0,0,0,.18-.48c0-.07,0-.15-.05-.23a4.6,4.6,0,0,0-.66-1.26,10.77,10.77,0,0,0-2.05-2.16,11.62,11.62,0,0,0-2.84-1.68A9.66,9.66,0,0,0,257.31,271.31Zm-5.73,11.05a3.83,3.83,0,0,0,0,.59,1.13,1.13,0,0,0,.41.66,4.74,4.74,0,0,0,1.55.9,10.39,10.39,0,0,0,3.08.6,12.76,12.76,0,0,0,2.76-.15,8,8,0,0,0,2.43-.79,3.28,3.28,0,0,0,1-.75,1.28,1.28,0,0,0,.25-1.05l-.9-.12c-1-.14-2.05-.29-3.08-.42-.45-.06-.9-.11-1.36-.13a11.61,11.61,0,0,0-1.18,0c-.62.05-1.23.11-1.84.19s-1.48.2-2.21.31Z" transform="translate(-245.82 -269.02)"/><path class="cls-1" d="M257.29,274.77c.24-.19.44-.38.66-.55a2.68,2.68,0,0,1,1.77-.56,2.76,2.76,0,0,1,1.41.47c.23.16.44.35.67.52l.12.09,0,0h-.09A9.4,9.4,0,0,0,260,275a2.63,2.63,0,0,0-1.18.49.75.75,0,0,0-.33.57,1.14,1.14,0,0,1-2.28,0,.82.82,0,0,0-.33-.58,2.64,2.64,0,0,0-1-.45,8.6,8.6,0,0,0-1.82-.2h-.28l.06-.07a3.42,3.42,0,0,1,1.8-1,2.48,2.48,0,0,1,1.67.25,3.66,3.66,0,0,1,.92.68Z" transform="translate(-245.82 -269.02)"/></svg>